<?xml version="1.0" standalone="no"?>
<!DOCTYPE svg PUBLIC "-//W3C//DTD SVG 1.1//EN" "http://www.w3.org/Graphics/SVG/1.1/DTD/svg11.dtd" >
<svg xmlns="http://www.w3.org/2000/svg">
<metadata>Generated by IcoMoon</metadata>
<defs>
<font id="icomoon" horiz-adv-x="1024">
<font-face units-per-em="1024" ascent="960" descent="-64" />
<missing-glyph horiz-adv-x="1024" />
<glyph unicode="&#x20;" horiz-adv-x="512" d="" />
<glyph unicode="&#x2605;" glyph-name="ico_star" horiz-adv-x="1100" d="M568.889 960l166.874-348.919 364.089-37.926-257.896-288.237 53.096-348.919-326.163 151.704-329.956-151.704 53.096 348.919-254.104 284.444 360.296 37.926 170.667 352.711z" />
<glyph unicode="&#x2699;" glyph-name="ic_gear" d="M951.143 515.748l-27.544 5.331c0 7.997-3.11 15.993-4.887 23.99l22.657 15.105c23.876 16.177 39.361 43.176 39.361 73.791 0 18.927-5.918 36.472-16.005 50.886l0.19-0.286-66.638 97.735c-16.2 23.703-43.1 39.058-73.587 39.058-19.015 0-36.634-5.973-51.085-16.145l0.282 0.188-23.101-15.993-20.436 13.328 5.331 27.544c1.309 5.715 2.059 12.277 2.059 19.015 0 43.835-31.743 80.255-73.496 87.529l-0.531 0.077-115.95 23.101c-4.769 0.908-10.255 1.427-15.862 1.427-43.926 0-80.407-31.876-87.574-73.758l-0.074-0.526-5.331-27.544-23.99-4.887-15.105 22.657c-16.177 23.876-43.176 39.361-73.791 39.361-18.927 0-36.472-5.918-50.886-16.005l0.286 0.19-97.735-66.638c-23.703-16.2-39.058-43.1-39.058-73.587 0-19.015 5.973-36.634 16.145-51.085l-0.188 0.282 15.993-23.101-13.328-20.436-29.321 4.887c-5.224 1.091-11.227 1.715-17.375 1.715-43.554 0-79.788-31.337-87.385-72.695l-0.083-0.545-23.101-116.394c-1.037-5.095-1.631-10.951-1.631-16.946 0-43.523 31.294-79.738 72.609-87.369l0.547-0.084 27.544-5.331q0-11.995 4.887-23.99l-23.101-15.993c-23.703-16.2-39.058-43.1-39.058-73.587 0-19.015 5.973-36.634 16.145-51.085l-0.188 0.282 66.638-97.291c16.177-23.876 43.176-39.361 73.791-39.361 18.927 0 36.472 5.918 50.886 16.005l-0.286-0.19 23.101 15.993 20.436-13.328-5.331-27.544c-1.037-5.095-1.631-10.951-1.631-16.946 0-43.523 31.294-79.738 72.609-87.369l0.547-0.084 115.95-21.768c2.463-0.243 5.325-0.381 8.219-0.381s5.755 0.138 8.578 0.409l-0.36-0.028c0.431-0.008 0.94-0.012 1.449-0.012 43.421 0 79.567 31.147 87.315 72.317l0.086 0.552 5.331 27.544 23.99 4.887 15.549-23.101c16.177-23.876 43.176-39.361 73.791-39.361 18.927 0 36.472 5.918 50.886 16.005l-0.286-0.19 97.291 66.638c23.876 16.177 39.361 43.176 39.361 73.791 0 18.927-5.918 36.472-16.005 50.886l0.19-0.286-15.993 23.101c4.443 6.664 9.329 13.772 13.328 20.436l27.544-5.331c5.095-1.037 10.951-1.631 16.946-1.631 43.523 0 79.738 31.294 87.369 72.609l0.084 0.547 22.657 115.505c0.953 4.885 1.498 10.502 1.498 16.247 0 43.158-30.771 79.129-71.57 87.171l-0.564 0.093zM888.503 345.156l-19.547 3.554c-5.285 1.117-11.358 1.757-17.58 1.757-33.422 0-62.534-18.454-77.703-45.728l-0.231-0.453c-8.042-14.614-16.28-27.105-25.386-38.89l0.508 0.684c-11.304-14.75-18.114-33.463-18.114-53.766 0-19.516 6.292-37.562 16.958-52.221l-0.177 0.255 11.106-16.437-51.533-35.54-11.106 16.437c-16.178 23.869-43.173 39.347-73.782 39.347-9.178 0-18.031-1.392-26.359-3.975l0.629 0.168c-12.45-3.804-27.479-7.069-42.882-9.158l-1.543-0.171c-39.087-4.612-70.148-34.015-77.214-71.863l-0.085-0.55-3.554-19.547-61.751 11.551 3.554 19.547c1.117 5.285 1.757 11.358 1.757 17.58 0 33.422-18.454 62.534-45.728 77.703l-0.453 0.231c-14.436 8.074-26.779 16.306-38.432 25.381l0.671-0.503c-15.035 12.056-34.342 19.349-55.353 19.349-19.986 0-38.431-6.599-53.275-17.737l0.23 0.165-16.437-11.106-35.54 51.533 16.437 11.106c23.933 16.169 39.46 43.2 39.46 73.858 0 9.314-1.433 18.293-4.091 26.728l0.171-0.629c-3.796 12.44-7.060 27.469-9.156 42.87l-0.173 1.556c-4.612 39.087-34.015 70.148-71.863 77.214l-0.55 0.085-19.547 3.554 12.439 61.751 19.547-3.554c5.285-1.117 11.358-1.757 17.58-1.757 33.422 0 62.534 18.454 77.703 45.728l0.231 0.453c8.072 14.436 16.304 26.778 25.38 38.431l-0.502-0.669c12.623 15.231 20.282 34.973 20.282 56.505 0 19.484-6.271 37.503-16.906 52.149l0.178-0.257-10.218 15.105 51.533 35.54 11.106-16.437c16.262-23.172 42.86-38.132 72.952-38.132 9.32 0 18.304 1.435 26.745 4.096l-0.629-0.171c12.45 3.804 27.479 7.069 42.882 9.158l1.543 0.171c39.087 4.612 70.148 34.015 77.214 71.863l0.085 0.55 3.554 19.547 61.307-12.439-3.554-19.547c-1.117-5.285-1.757-11.358-1.757-17.58 0-33.422 18.454-62.534 45.728-77.703l0.453-0.231c14.435-8.069 26.777-16.301 38.429-25.379l-0.667 0.501c15.056-12.114 34.407-19.443 55.471-19.443 18.973 0 36.557 5.947 50.989 16.078l-0.284-0.189 17.326 10.218 35.54-51.533-16.437-11.551c-24.168-16.137-39.871-43.3-39.871-74.131 0-8.724 1.257-17.155 3.601-25.121l-0.158 0.628c3.804-12.45 7.069-27.479 9.158-42.882l0.171-1.543c4.612-39.087 34.015-70.148 71.863-77.214l0.55-0.085 19.547-3.554zM512.222 642.804c-107.71 0-195.026-87.316-195.026-195.026s87.316-195.026 195.026-195.026c107.71 0 195.026 87.316 195.026 195.026v0c-0.252 107.609-87.418 194.774-195.003 195.026h-0.024zM512.222 349.154c-54.468 0-98.624 44.155-98.624 98.624s44.155 98.624 98.624 98.624c54.468 0 98.624-44.155 98.624-98.624v0c-0.252-54.277-44.311-98.18-98.623-98.18 0 0-0.001 0-0.001 0v0z" />
<glyph unicode="&#xe900;" glyph-name="360" d="M961.792 605.594l-78.49-63.898c25.395-29.542 38.298-60.672 38.298-92.57 0-80.742-86.221-158.362-219.648-197.734l29.696-95.334c180.378 53.248 292.352 165.53 292.352 293.069 0 55.142-21.504 109.21-62.208 156.467zM445.798 359.885c-20.019 19.456-52.378 19.456-72.397 0s-20.019-50.995 0-70.4l61.85-60.16c-186.829 20.275-332.851 112.64-332.851 219.802 0 31.846 12.902 62.976 38.298 92.57l-78.49 63.898c-40.704-47.258-62.208-101.325-62.208-156.467 0-166.605 189.696-299.776 442.829-320.563l-69.427-67.533c-20.019-19.456-20.019-50.944 0-70.4 9.984-9.728 23.091-14.592 36.198-14.592s26.214 4.864 36.198 14.592l153.6 149.402c20.019 19.456 20.019 50.944 0 70.4l-153.6 149.453zM196.915 592.589c20.275-15.718 44.544-23.501 72.755-23.501 32.102 0 58.419 8.294 78.95 24.883 20.531 16.64 30.822 39.526 30.822 68.557 0 17.818-4.352 33.178-13.056 46.080-8.755 12.902-21.299 22.426-37.734 28.57 14.336 6.81 25.651 16.435 33.843 28.723 8.243 12.288 12.339 25.754 12.339 40.141 0 28.877-9.523 51.2-28.518 67.072s-44.493 23.757-76.39 23.757c-28.058 0-51.61-7.987-70.707-23.91s-28.262-36.506-27.494-61.696l0.512-1.331h66.458c0 11.059 3.328 20.122 9.779 26.982 6.554 6.861 14.336 10.291 23.398 10.291 11.11 0 19.661-3.84 25.6-11.622 5.99-7.782 8.96-17.869 8.96-30.259 0-14.182-2.97-25.293-8.96-33.178-5.99-7.834-15.053-11.827-27.341-11.827h-34.355v-48.128h34.355c13.414 0 23.501-3.891 30.362-11.674 6.861-7.834 10.24-20.173 10.24-37.12 0-13.568-3.482-24.422-10.496-32.512s-16.486-12.134-28.365-12.134c-10.496 0-19.251 4.045-26.368 12.032-7.117 8.038-10.65 18.176-10.65 30.413h-66.765l-0.461-1.331c-0.768-29.133 8.96-51.558 29.286-67.277zM547.226 787.456c-12.134 0-23.040-1.843-32.922-5.632-9.83-3.789-17.92-9.011-24.218-15.565l-0.87 0.87c-0.512 25.242 4.301 44.749 14.387 58.522 10.035 13.773 23.501 20.685 40.243 20.685 9.37 0 17.613-0.819 24.781-2.509s15.002-4.147 23.552-7.526l11.622 47.104c-9.83 4.454-19.456 7.885-28.928 10.189-9.421 2.253-19.866 3.328-31.283 3.328-36.25 0-66.048-12.083-89.344-36.198-23.296-24.218-34.918-56.934-34.918-98.15v-65.638c0-39.68 10.086-70.912 30.31-93.696 20.275-22.784 46.643-34.15 79.206-34.15 30.31 0 55.040 10.342 74.24 31.181 19.149 20.787 28.774 47.053 28.774 78.899 0 31.642-7.475 57.651-22.374 77.926-14.899 20.224-35.686 30.362-62.259 30.362zM553.728 636.518c-6.298-11.878-14.592-17.766-24.883-17.766-12.544 0-22.528 6.656-29.85 20.070-7.373 13.414-11.008 32.563-11.008 57.498v25.088c3.994 5.376 9.421 9.574 16.179 12.544 6.758 3.021 14.899 4.454 24.422 4.454 10.138 0 18.432-5.427 24.883-16.333s9.728-25.19 9.728-42.803c0-16.589-3.174-30.874-9.472-42.752zM843.981 602.010c18.637 21.965 27.955 54.118 27.955 96.614v68.506c0 42.291-9.37 74.496-28.058 96.614-18.688 22.067-43.725 33.126-75.213 33.126-31.437 0-56.474-11.008-75.059-33.126-18.637-22.118-27.955-54.323-27.955-96.614v-68.506c0-42.496 9.318-74.701 28.058-96.614 18.688-21.965 43.878-32.922 75.469-32.922 31.283 0 56.218 10.957 74.803 32.922zM743.322 636.774c-5.939 11.878-8.96 30.822-8.96 56.781v79.002c0 25.702 2.918 44.442 8.704 56.269 5.837 11.827 14.131 17.408 24.934 16.64h1.434c10.598 0.768 18.893-4.813 24.883-16.64 5.939-11.827 8.96-30.618 8.96-56.269v-79.002c0-26.112-2.97-45.107-8.755-56.883-5.786-11.827-13.978-17.306-24.678-16.435h-1.434c-10.752-0.87-19.098 4.659-25.088 16.538z" />
<glyph unicode="&#xe901;" glyph-name="arr_down" d="M1025.195 603.733l-184.832 186.88-328.363-331.947-328.363 331.947-184.917-186.88 493.056-498.261 20.224 20.395 20.224-20.395z" />
<glyph unicode="&#xe902;" glyph-name="arr_down_thin" horiz-adv-x="1741" d="M1740.083 825.651l-151.757 133.734-717.824-749.773-717.926 749.773-151.757-133.734 851.251-888.934 18.432 16.179 18.33-16.179z" />
<glyph unicode="&#xe903;" glyph-name="arr_left" d="M859.834 777.123l-190.511 184.506-508.044-491.985 20.852-20.201-20.852-20.201 508.044-491.939 190.511 184.46-338.385 327.68z" />
<glyph unicode="&#xe904;" glyph-name="arr_left_thin" horiz-adv-x="602" d="M601.992 870.31l-78.667 89.269-522.903-500.736 9.517-10.782-9.517-10.842 522.903-500.736 78.667 89.269-441.043 422.31z" />
<glyph unicode="&#xe905;" glyph-name="arr_right" d="M862.72 469.644l-508.044 491.985-190.511-184.506 338.385-327.68-338.385-327.68 190.511-184.46 508.044 491.939-20.852 20.201z" />
<glyph unicode="&#xe906;" glyph-name="arr_right_thin" horiz-adv-x="602" d="M601.931 458.842l-522.903 500.736-78.667-89.269 441.043-422.249-441.043-422.31 78.667-89.269 522.903 500.736-9.517 10.842z" />
<glyph unicode="&#xe907;" glyph-name="arr_up" d="M1025.195 292.267l-492.971 498.347-20.224-20.48-20.224 20.48-492.971-498.347 184.832-186.795 328.363 331.861 328.363-331.861z" />
<glyph unicode="&#xe908;" glyph-name="arr_up_thin" horiz-adv-x="1741" d="M1740.083 70.349l-851.251 888.934-18.33-16.179-18.432 16.179-851.251-888.934 151.757-133.734 717.926 749.773 717.824-749.773z" />
<glyph unicode="&#xe909;" glyph-name="calc" d="M819.2 960h-614.4c-56.474 0-102.4-45.926-102.4-102.4v-819.2c0-56.474 45.926-102.4 102.4-102.4h614.4c56.474 0 102.4 45.926 102.4 102.4v819.2c0 56.474-45.926 102.4-102.4 102.4zM204.8 857.6h614.4v-204.8h-614.4v204.8zM204.8 38.4v512h614.4l0.051-512h-614.451zM307.2 396.8h102.4v102.4h-102.4v-102.4zM460.8 396.8h102.4v102.4h-102.4v-102.4zM614.4 396.8h102.4v102.4h-102.4v-102.4zM307.2 243.2h102.4v102.4h-102.4v-102.4zM460.8 243.2h102.4v102.4h-102.4v-102.4zM614.4 243.2h102.4v102.4h-102.4v-102.4zM307.2 89.6h102.4v102.4h-102.4v-102.4zM460.8 89.6h102.4v102.4h-102.4v-102.4zM614.4 89.6h102.4v102.4h-102.4v-102.4z" />
<glyph unicode="&#xe90a;" glyph-name="car" d="M940.23 524.866l-229.938 52.356-99.394 99.361c-22.99 23.023-53.578 35.675-86.115 35.675h-312.254c-41.819 0-79.41-23.222-98.073-60.581l-33.594-67.188c-1.354-2.676-4.030-4.36-7.003-4.36-40.729 0-73.86-33.131-73.86-73.827v-175.071l113.796-75.875 0.33 0.495c21.933-42.612 65.866-72.109 117.099-72.109 48.789 0 90.905 26.723 113.796 66.065h300.891c22.891-39.341 65.041-66.065 113.796-66.065 50.11 0 93.184 28.21 115.58 69.302l87.007 23.42c35.774 7.168 61.704 38.78 61.704 75.214v70.161c0 50.011-35.576 93.415-83.77 103.028zM231.226 249.806c-36.435 0-66.065 29.63-66.065 66.065s29.63 66.065 66.065 66.065c36.435 0 66.065-29.63 66.065-66.065 0-36.402-29.63-66.065-66.065-66.065zM759.742 249.806c-36.435 0-66.065 29.63-66.065 66.065s29.63 66.065 66.065 66.065c36.435 0 66.065-29.63 66.065-66.065 0-36.402-29.63-66.065-66.065-66.065zM957.935 351.678c0-5.054-3.601-9.447-10.636-10.934l-56.419-15.129c-5.087 68.344-61.506 122.385-131.138 122.385-72.968 0-132.129-59.161-132.129-132.129h-264.258c0 72.968-59.161 132.129-132.129 132.129-63.785 0-116.967-45.188-129.387-105.274l-35.774 23.849v139.726c0 4.261 3.501 7.763 7.796 7.763 28.143 0 53.413 15.624 66.065 40.828l33.627 67.254c7.399 14.831 22.363 24.047 38.978 24.047h312.254c14.898 0 28.903-5.814 39.407-16.318l112.871-112.871 249.361-56.749c18.267-3.634 31.513-19.819 31.513-38.417v-70.161z" />
<glyph unicode="&#xe90b;" glyph-name="check" d="M998.888 650.703l-137.899 137.947-422.132-422.132-275.846 275.846-137.899-137.947 397.019-396.971 16.725 16.725 16.725-16.725z" />
<glyph unicode="&#xe90c;" glyph-name="color" d="M696.32 651.827c-74.394 68.813-133.12 123.238-133.12 256.973 0 28.314-22.938 51.2-51.2 51.2s-51.2-22.886-51.2-51.2c0-133.734-58.726-188.16-133.12-256.973-81.562-75.674-174.080-161.331-174.080-357.427 0-197.581 160.768-358.4 358.4-358.4s358.4 160.819 358.4 358.4c0 196.096-92.518 281.754-174.080 357.427zM512 38.4c-141.158 0-256 114.842-256 256 0 151.347 65.485 212.019 141.312 282.266 40.038 37.069 82.586 77.005 114.688 131.072 32.102-54.067 74.65-94.003 114.688-131.072 75.827-70.246 141.312-130.918 141.312-282.266 0-141.158-114.842-256-256-256z" />
<glyph unicode="&#xe90d;" glyph-name="cross" d="M994.702 769.82l-160.882 160.939-321.82-321.82-321.82 321.82-160.882-160.939 321.764-321.764-321.764-321.82 160.882-160.939 321.82 321.82 321.82-321.82 160.882 160.939-321.82 321.82z" />
<glyph unicode="&#xe90e;" glyph-name="cross_big" d="M1022.507 773.419l-187.819 187.819-324.011-324.053-324.053 324.053-187.819-187.819 324.053-324.053-324.053-324.053 187.819-187.776 324.053 324.053 324.011-324.053 187.819 187.776-324.053 324.053z" />
<glyph unicode="&#xe90f;" glyph-name="date" d="M853.333 846.222h-113.778v56.889c0 31.403-25.486 56.889-56.889 56.889s-56.889-25.486-56.889-56.889v-56.889h-227.556v56.889c0 31.403-25.486 56.889-56.889 56.889s-56.889-25.486-56.889-56.889v-56.889h-113.778c-62.862 0-113.778-50.916-113.778-113.778v-682.667c0-62.805 50.916-113.778 113.778-113.778h682.667c62.862 0 113.778 50.972 113.778 113.778v682.667c0 62.862-50.916 113.778-113.778 113.778zM853.333 49.778h-682.667v398.222h682.667v-398.222zM853.333 561.778h-682.667v170.667h113.778v-56.889c0-31.403 25.486-56.889 56.889-56.889s56.889 25.486 56.889 56.889v56.889h227.556v-56.889c0-31.403 25.486-56.889 56.889-56.889s56.889 25.486 56.889 56.889v56.889h113.778v-170.667zM455.111 391.168h-113.778v-113.778h113.778v113.778zM682.667 391.168h-113.778v-113.778h113.778v113.778zM682.667 220.444h-113.778v-113.778h113.778v113.778zM455.111 220.444h-113.778v-113.778h113.778v113.778z" />
<glyph unicode="&#xe910;" glyph-name="engine" d="M921.6 601.6v-102.4h-51.2v153.6h-102.4v153.6h-204.8v51.2h153.6v102.4h-409.6v-102.4h153.6v-51.2h-204.8v-102.4h-102.4v-256h-51.2v204.8c0 28.262-22.938 51.2-51.2 51.2s-51.2-22.886-51.2-51.2v-512c0-28.262 22.938-51.2 51.2-51.2s51.2 22.938 51.2 51.2v204.8h51.2v-256h126.208l102.4-153.6h488.192v153.6h51.2v-102.4c56.576 0 102.4 45.824 102.4 102.4v409.6c0 56.576-45.824 102.4-102.4 102.4zM768 38.4h-331.008l-102.4 153.6h-78.592v409.6h102.4v102.4h307.2v-153.6h102.4v-512zM921.6 192h-51.2v204.8h51.2v-204.8z" />
<glyph unicode="&#xe911;" glyph-name="filtration" d="M307.2 345.6c-95.13 0-174.643-65.536-197.53-153.6h-109.67v-102.4h109.67c22.886-88.115 102.4-153.6 197.53-153.6s174.643 65.536 197.53 153.6h519.27v102.4h-519.27c-22.886 88.115-102.4 153.6-197.53 153.6zM307.2 38.4c-56.474 0-102.4 45.978-102.4 102.4 0 56.474 45.926 102.4 102.4 102.4s102.4-45.926 102.4-102.4c0-56.422-45.926-102.4-102.4-102.4zM504.73 806.4c-22.886 88.115-102.4 153.6-197.53 153.6s-174.643-65.485-197.53-153.6h-109.67v-102.4h109.67c22.886-88.064 102.349-153.6 197.53-153.6 95.13 0 174.643 65.536 197.53 153.6h519.27v102.4h-519.27zM307.2 652.8c-56.474 0-102.4 45.978-102.4 102.4s45.926 102.4 102.4 102.4c56.474 0 102.4-45.978 102.4-102.4s-45.926-102.4-102.4-102.4zM716.8 652.8c-95.13 0-174.643-65.536-197.53-153.6h-519.27v-102.4h519.27c22.886-88.115 102.4-153.6 197.53-153.6s174.643 65.536 197.53 153.6h109.67v102.4h-109.67c-22.886 88.115-102.4 153.6-197.53 153.6zM716.8 345.6c-56.474 0-102.4 45.978-102.4 102.4s45.926 102.4 102.4 102.4c56.474 0 102.4-45.978 102.4-102.4s-45.926-102.4-102.4-102.4z" />
<glyph unicode="&#xe912;" glyph-name="fullscreen" d="M53.606 957.44h-50.739v-407.808h101.478v233.779l217.856-218.829c9.933-9.984 22.886-14.95 35.891-14.95s25.958 4.966 35.891 14.95c19.814 19.917 19.814 52.173 0 72.090l-217.856 218.829h232.755v101.939h-355.277c0 0 0 0 0 0zM916.378 111.974l-217.856 218.829c-19.814 19.917-51.917 19.917-71.731 0s-19.814-52.173 0-72.090l217.856-218.829h-232.806v-101.939h406.016v407.808h-101.478v-233.779zM967.117 957.44c0 0 0 0 0 0h-355.277v-101.939h232.755l-217.856-218.829c-19.814-19.917-19.814-52.173 0-72.090 9.933-9.984 22.886-14.95 35.891-14.95s25.958 4.966 35.891 14.95l217.856 218.829v-233.779h101.478v407.808h-50.739zM393.984 330.803c-19.814 19.917-51.917 19.917-71.782 0l-217.856-218.829v233.779h-101.478v-407.808h406.016v101.99h-232.755l217.856 218.829c19.814 19.866 19.814 52.173 0 72.038z" />
<glyph unicode="&#xe913;" glyph-name="gas" d="M1022.925 704c0 24.986 0 83.558-241.971 151.706l-27.699-98.611c70.81-19.917 144.077-49.357 167.424-66.56 1.434-262.758-0.102-496.026-0.102-498.534 0-17.51-22.118-18.381-26.573-18.381-16.282 0-24.576 6.144-24.576 18.381 0 73.472-16.845 125.952-51.405 160.461-30.413 30.31-68.301 39.731-102.042 42.752v462.387c0 56.474-45.926 102.4-102.298 102.4h-409.242c-56.422 0-102.349-45.926-102.349-102.4v-819.2h-102.298v-102.4h818.534v102.4h-102.298v253.85c12.186-1.894 22.835-5.325 29.85-12.339 13.722-13.722 21.35-44.902 21.35-87.91 0-69.99 53.35-120.781 126.874-120.781 73.472 0 128.87 51.917 128.87 120.781h-3.584c6.246 53.453 5.478 181.504 3.533 512zM204.442 857.6h409.242l0.051-256h-409.293v256zM204.442 38.4v460.8h409.293l0.051-460.8h-409.344z" />
<glyph unicode="&#xe914;" glyph-name="like" d="M921.6 601.6h-256v256c0 56.422-45.926 102.4-102.4 102.4h-143.462l-102.4-460.8h-61.338v51.2h-256v-614.4h256v77.978l194.97-77.978h393.83l179.2 238.95v324.25c0 56.474-45.978 102.4-102.4 102.4zM153.6 38.4h-51.2v409.6h51.2v-409.6zM921.6 209.050l-128-170.65h-322.97l-214.63 85.862v272.538h143.462l102.4 460.8h61.338v-358.4h358.4v-290.15z" />
<glyph unicode="&#xe915;" glyph-name="location" d="M512 960c-197.632 0-358.4-160.768-358.4-358.4 0-196.045 92.518-281.754 174.080-357.325 74.394-68.915 133.12-123.341 133.12-257.075 0-28.314 22.938-51.2 51.2-51.2s51.2 22.886 51.2 51.2c0 133.734 58.726 188.16 133.12 257.075 81.562 75.571 174.080 161.28 174.080 357.325 0 197.632-160.768 358.4-358.4 358.4zM626.688 319.386c-40.038-37.12-82.586-77.056-114.688-131.123-32.102 54.067-74.65 94.003-114.688 131.123-75.827 70.246-141.312 130.867-141.312 282.214 0 141.158 114.842 256 256 256s256-114.842 256-256c0-151.347-65.485-211.968-141.312-282.214zM512 704c-56.576 0-102.4-45.824-102.4-102.4 0-56.525 45.824-102.4 102.4-102.4s102.4 45.875 102.4 102.4c0 56.576-45.824 102.4-102.4 102.4z" />
<glyph unicode="&#xe916;" glyph-name="message" d="M921.6 857.6h-819.2c-56.576 0-102.4-45.824-102.4-102.4v-614.4c0-56.576 45.824-102.4 102.4-102.4h819.2c56.576 0 102.4 45.824 102.4 102.4v614.4c0 56.576-45.824 102.4-102.4 102.4zM921.6 755.2v0 0 0zM512 417.997l-337.203 337.203h674.406l-337.203-337.203zM102.4 755.2v0 0 0zM102.4 140.8v542.003l373.402-373.402 36.198 36.198 36.198-36.198 373.402 373.402v-542.003h-819.2z" />
<glyph unicode="&#xe917;" glyph-name="phone" d="M945.25 320.731l-91.038 91.087c-41.545 41.691-104.838 51.931-157.891 25.356l-118.686-61.050c-17.944 3.755-58.514 16.677-102.302 60.562-43.496 43.496-67.096 94.452-77.824 122.929l72.753 89.722 5.851 9.021c26.283 52.614 15.994 115.956-25.551 157.598l-91.038 91.185c-53.053 53.053-139.605 53.102-192.805-0.049l-102.107-102.254c-58.807-58.856-71.29-150.382-30.33-222.598 14.043-24.771 26.673-49.445 39.448-74.313 44.178-86.114 89.868-175.202 193.877-279.259 113.566-113.762 196.315-154.429 276.382-193.78 25.259-12.434 50.469-24.82 76.8-39.79 28.379-16.189 59.782-24.040 90.99-24.040 48.079 0 95.72 18.627 131.365 54.37l102.107 102.205c53.15 53.248 53.15 139.849 0 193.097zM875.374 197.51l-102.107-102.205c-27.502-27.502-70.217-33.304-103.717-14.287-28.087 16.043-55.052 29.306-82.018 42.569-76.166 37.449-148.090 72.85-250.1 174.958-93.038 93.135-133.266 171.544-175.835 254.537-13.41 26.136-26.673 51.98-41.448 78.019-19.066 33.597-13.214 76.312 14.287 103.863l102.059 102.156c7.363 7.363 17.018 11.069 26.673 11.069 9.606 0 19.261-3.657 26.575-11.020l91.038-91.136c10.435-10.435 13.702-25.893 8.728-39.497l-101.035-124.587 5.851-23.845c1.073-4.34 26.917-107.032 111.226-191.39 87.138-87.235 171.154-90.843 180.468-90.99l12.288-0.146 142.677 73.387c14.482 7.363 31.988 4.486 43.447-7.070l90.99-91.087c14.629-14.677 14.629-38.619-0.049-53.297z" />
<glyph unicode="&#xe918;" glyph-name="phone_small" d="M994.714 180.838l-116.736 116.634c-30.618 30.618-77.21 38.4-116.019 19.149-52.326-26.010-117.453-58.47-118.682-59.699-79.872-79.872-396.698 245.555-321.126 321.024l59.29 118.477c19.354 38.81 11.776 85.709-18.944 116.326l-117.453 117.555c-35.84 35.738-92.774 39.834-132.71 8.704-51.302-40.038-111.309-94.618-111.309-131.686 0-308.019 565.248-903.885 871.731-871.322 36.352 3.891 90.010 61.542 129.843 111.206 31.949 39.834 28.262 97.485-7.885 133.632z" />
<glyph unicode="&#xe919;" glyph-name="play" d="M885.811 561.613l-628.122 381.44c-38.144 23.194-83.354 22.835-121.19-0.819-37.786-23.654-60.365-65.843-60.365-112.794v-762.931c0-46.95 22.579-89.139 60.365-112.794 19.149-11.981 40.192-17.971 61.235-17.971 20.531 0 41.114 5.683 59.955 17.101l628.122 381.44c38.656 23.501 61.747 65.946 61.747 113.664s-23.091 90.163-61.747 113.664zM836.71 427.366l-628.122-381.44c-9.523-5.837-17.818-2.406-21.914 0.154s-10.906 8.602-10.906 20.429v762.931c0 11.827 6.81 17.869 10.906 20.429 2.458 1.485 6.349 3.328 11.162 3.328 3.277 0 6.912-0.819 10.803-3.174l628.122-381.44c9.728-5.939 11.162-15.462 11.162-20.582 0-5.171-1.434-14.694-11.213-20.634z" />
<glyph unicode="&#xe91a;" glyph-name="plus" d="M1024 533.333h-426.667v426.752h-170.667v-426.752h-426.667v-170.667h426.667v-426.581h170.667v426.581h426.667z" />
<glyph unicode="&#xe91b;" glyph-name="s_fb" horiz-adv-x="536" d="M369.859 607.988l0.293 84.114c0 43.788 4.486 67.291 72.070 67.291h90.307v168.034h-144.579c-173.592 0-234.74-81.481-234.74-218.551v-100.937h-108.251v-168.034h108.3v-487.473h216.6v487.473h144.579l19.163 168.034h-163.742z" />
<glyph unicode="&#xe91c;" glyph-name="s_ok" horiz-adv-x="634" d="M315.928 441.173c143.896 0 260.876 112.738 260.876 251.319 0 138.63-116.98 251.416-260.876 251.416-143.848 0-260.876-112.786-260.876-251.416 0-138.581 117.029-251.319 260.876-251.319zM315.928 796.599c59.587 0 108.008-46.714 108.008-104.107 0-57.344-48.421-104.107-108.008-104.107-59.49 0-108.008 46.763-108.008 104.107 0 57.393 48.518 104.107 108.008 104.107zM421.449 236.081c53.102 11.654 104.35 31.89 151.503 60.465 35.694 21.65 46.47 67.145 23.991 101.571-22.479 34.475-69.632 44.91-105.423 23.162-106.837-64.756-244.395-64.756-351.232 0-35.742 21.748-82.895 11.313-105.326-23.162-22.479-34.426-11.8-79.872 23.942-101.571 47.153-28.526 98.402-48.811 151.454-60.465l-145.847-140.581c-29.842-28.721-29.842-75.386 0.049-104.155 14.921-14.385 34.475-21.602 54.028-21.602s39.156 7.217 54.077 21.602l143.214 138.142 143.36-138.142c29.794-28.77 78.214-28.77 108.056 0 29.891 28.77 29.891 75.435 0 104.155l-145.847 140.581z" />
<glyph unicode="&#xe91d;" glyph-name="s_tw" d="M977.92 704.634c1.17 1.609 1.024 3.852-0.341 5.364-1.414 1.512-3.706 2.048-5.705 1.219-29.111-11.898-59.782-20.48-91.331-25.551 33.548 23.259 58.514 55.442 71.339 92.306 0.585 1.804-0.049 3.755-1.609 4.827-1.56 1.17-3.755 1.317-5.51 0.39-37.742-20.626-78.653-35.206-121.563-43.252-38.132 36.376-91.234 57.198-146.237 57.198-111.86 0-202.85-83.87-202.85-186.953 0-12.434 1.317-24.82 3.901-36.815-154.917 8.777-299.788 77.336-398.287 188.66-1.024 1.219-2.536 1.853-4.145 1.658-1.609-0.098-3.023-0.926-3.803-2.194-17.944-28.379-27.502-60.904-27.502-93.964 0-57.246 28.282-110.836 76.41-146.188-24.771 2.731-48.957 9.899-70.802 21.016-1.463 0.78-3.267 0.78-4.779 0-1.414-0.78-2.341-2.194-2.341-3.755l-0.098-2.389c0-82.31 58.856-154.526 142.58-178.615-22.040-3.267-44.958-2.974-67.438 0.975-1.658 0.244-3.413-0.293-4.535-1.463s-1.512-2.828-0.975-4.291c25.064-72.216 94.842-122.831 176.079-129.17-67.779-45.739-147.797-69.778-232.448-69.778-15.604 0-31.305 0.829-46.665 2.487-2.194 0.244-4.389-0.975-5.12-2.926-0.78-1.999 0.049-4.145 1.95-5.266 91.575-54.077 197.388-82.7 306.127-82.7 355.669 0 568.222 266.24 568.222 523.605 0 7.168-0.195 14.287-0.488 21.455 38.424 25.795 71.387 57.442 97.963 94.11z" />
<glyph unicode="&#xe91e;" glyph-name="s_vk" d="M1015.954 217.259c-17.798 32.085-51.785 71.436-101.961 118.15l-2.097 2.097h-0.536c-22.772 21.699-37.157 36.376-43.203 43.837-11.069 14.238-13.507 28.672-7.509 43.252 4.242 11.069 20.236 34.426 47.982 70.12 14.58 18.822 26.136 33.987 34.67 45.397 61.538 81.92 88.21 134.29 80.018 157.111l-3.218 5.413c-2.097 3.17-7.656 6.095-16.53 8.826-8.923 2.633-20.285 3.072-34.182 1.317l-153.649-1.073c-3.56 0.341-7.119 0.293-10.63-0.244-3.56-0.585-5.9-1.073-6.973-1.609-1.073-0.585-1.95-0.975-2.633-1.317l-2.146-1.609c-1.804-1.073-3.755-2.926-5.851-5.608-2.146-2.633-3.95-5.754-5.364-9.362-16.725-43.057-35.742-83.188-57.149-120.247-13.117-22.040-25.21-41.253-36.23-57.442-10.971-16.238-20.236-28.282-27.648-35.84-7.461-7.704-14.287-13.848-20.285-18.481-6.046-4.632-10.679-6.632-13.848-5.851-3.218 0.731-6.242 1.414-9.118 2.146-4.974 3.121-8.972 7.509-11.947 13.068-3.072 5.51-5.071 12.434-6.144 20.87-1.024 8.387-1.755 15.555-1.853 21.699-0.244 6.046-0.098 14.58 0.195 25.649 0.341 10.971 0.585 18.481 0.585 22.43 0 13.556 0.244 28.233 0.731 44.081 0.585 15.945 0.975 28.477 1.414 37.693 0.341 9.265 0.488 19.066 0.488 29.452 0 10.338-0.634 18.383-1.902 24.283-1.219 5.851-3.121 11.557-5.559 17.067-2.487 5.51-6.144 9.752-10.923 12.824-4.827 2.974-10.776 5.413-17.896 7.168-18.871 4.291-42.862 6.583-72.021 7.022-66.219 0.634-108.69-3.657-127.61-12.922-7.461-3.95-14.19-9.265-20.236-15.994-6.437-7.899-7.314-12.142-2.731-12.873 21.358-3.121 36.474-10.874 45.397-23.016l3.218-6.339c2.536-4.681 5.022-12.873 7.461-24.625 2.487-11.752 4.096-24.722 4.827-39.010 1.804-25.99 1.804-48.226 0-66.804-1.804-18.53-3.462-32.963-5.071-43.252-1.609-10.386-4.047-18.773-7.168-25.161-3.218-6.437-5.364-10.338-6.485-11.703-1.073-1.463-1.95-2.341-2.633-2.731-4.632-1.755-9.411-2.633-14.434-2.633-4.925 0-10.971 2.487-18.139 7.461-7.119 4.974-14.482 11.849-22.138 20.578-7.656 8.68-16.286 20.919-25.893 36.62-9.606 15.653-19.554 34.182-29.842 55.589l-8.533 15.506c-5.364 9.947-12.678 24.478-21.943 43.544s-17.457 37.449-24.527 55.296c-2.828 7.558-7.070 13.166-12.776 17.164l-2.633 1.512c-1.755 1.463-4.632 2.926-8.582 4.535-3.901 1.658-7.997 2.828-12.239 3.56l-146.188-1.122c-14.921 0-25.112-3.413-30.427-10.142l-2.146-3.218c-1.073-1.755-1.609-4.632-1.609-8.533 0-3.95 1.122-8.728 3.218-14.434 21.358-50.274 44.52-98.743 69.632-145.359 25.064-46.714 46.86-84.261 65.341-112.786 18.53-28.526 37.4-55.442 56.613-80.701 19.212-25.307 31.939-41.545 38.132-48.616 6.242-7.119 11.118-12.532 14.677-16.043l13.361-12.873c8.485-8.582 21.065-18.773 37.547-30.769 16.579-11.947 34.865-23.698 55.003-35.206 20.090-11.654 43.496-21.065 70.12-28.379 26.673-7.314 52.663-10.289 77.97-8.826h61.342c12.483 1.073 21.845 4.974 28.282 11.8l2.097 2.633c1.365 2.146 2.779 5.413 3.998 9.899 1.268 4.437 1.902 9.362 1.902 14.629-0.341 15.311 0.78 29.16 3.413 41.448 2.633 12.337 5.705 21.553 9.070 27.843 3.413 6.193 7.168 11.459 11.459 15.701 4.242 4.291 7.314 6.875 9.118 7.753 1.755 0.878 3.218 1.512 4.242 1.853 8.485 2.877 18.578 0.098 30.135-8.241 11.557-8.387 22.43-18.725 32.573-30.964 10.142-12.337 22.333-26.136 36.523-41.448 14.287-15.311 26.673-26.722 37.4-34.231l10.63-6.388c7.119-4.242 16.335-8.143 27.697-11.752 11.41-3.56 21.406-4.486 29.94-2.682l136.582 2.194c13.507 0 24.040 2.194 31.451 6.729 7.461 4.34 11.947 9.314 13.361 14.677 1.414 5.315 1.56 11.362 0.293 18.139-1.268 6.729-2.487 11.459-3.706 14.141s-2.389 4.876-3.413 6.68z" />
<glyph unicode="&#xe91f;" glyph-name="search" d="M1003.725 23.398l-274.995 276.275c53.709 69.376 86.067 156.262 86.067 250.778 0 225.843-182.938 409.6-407.808 409.6s-407.808-183.757-407.808-409.6c0-225.843 182.938-409.6 407.808-409.6 94.054 0 180.582 32.461 249.651 86.426l275.046-276.224c9.933-10.035 22.938-15.053 35.994-15.053s26.061 5.018 36.045 15.002c19.917 20.019 19.917 52.378 0 72.397zM101.12 550.4c0 169.421 137.165 307.2 305.818 307.2s305.818-137.779 305.818-307.2c0-169.421-137.165-307.2-305.818-307.2s-305.818 137.83-305.818 307.2z" />
<glyph unicode="&#xe920;" glyph-name="service" d="M1010.883 502.174l-26.136 92.209c-7.558 26.526-27.941 46.47-54.613 53.394s-54.223-0.634-73.679-20.041l-165.547-165.547-110.056 21.992-22.040 110.056 165.547 165.547c19.456 19.456 26.965 47.055 20.041 73.679-6.924 26.673-26.917 47.104-53.443 54.613l-92.16 26.185c-57.929 16.433-120.491 0.195-163.109-42.423l-161.012-160.963c-42.618-42.618-58.904-105.131-42.423-163.157l32.329-113.859-222.891-222.891 66.511-66.462 185.783 185.783 4.047-14.238c15.848-55.93 58.758-98.792 114.688-114.688l14.238-4.047-185.783-185.783 66.462-66.462 222.891 222.891 113.81-32.28c14.97-4.242 30.184-6.29 45.349-6.29 43.544 0 86.114 17.115 117.76 48.713l161.012 161.012c42.667 42.52 58.904 105.033 42.423 163.060zM901.071 406.406l-161.012-160.963c-18.237-18.237-44.958-25.21-69.73-18.139l-157.891 44.812-5.364 5.364-3.023-3.023-65.39 18.578c-23.893 6.778-42.228 25.112-49.006 49.006l-18.578 65.39 2.974 2.974-5.364 5.364-44.715 157.94c-7.022 24.82-0.098 51.493 18.139 69.73l160.963 160.963c13.507 13.507 31.744 20.821 50.322 20.821 6.485 0 12.971-0.878 19.407-2.682l61.976-17.603-179.395-179.395 44.52-222.354 222.354-44.52 179.395 179.395 17.603-61.976c6.973-24.722 0-51.444-18.188-69.681z" />
<glyph unicode="&#xe921;" glyph-name="testdrive" d="M512 960c-282.317 0-512-229.683-512-512s229.683-512 512-512c282.317 0 512 229.683 512 512s-229.683 512-512 512zM606.822 315.136c-4.762-13.722-6.861-28.211-7.68-43.11-28.877 14.694-57.651 22.374-86.835 22.374-0.051 0-0.102 0-0.154 0-29.338 0-58.266-7.731-87.347-22.528-0.819 14.95-2.918 29.542-7.68 43.264-36.966 106.394-175.462 132.762-267.11 150.221-9.318 1.792-19.968 3.789-29.952 5.888 50.944 35.379 206.643 72.806 391.936 79.104 185.293-6.298 340.992-43.674 391.936-79.104-9.984-2.048-20.634-4.096-29.952-5.837-91.648-17.51-230.144-43.878-267.162-150.272zM512 857.6c176.333 0 326.554-112.23 384.154-268.851-117.914 48.384-288.358 60.979-382.515 64.051l-1.638-50.79-1.638 50.79c-94.157-3.072-264.602-15.667-382.515-64 57.549 156.57 207.821 268.8 384.154 268.8zM110.234 368.794c6.758-1.331 13.619-2.662 20.634-3.994 68.506-13.056 172.032-32.717 189.594-83.251 7.066-20.275 5.734-66.15-60.314-155.802-75.981 59.443-130.56 144.845-149.914 243.046zM356.506 69.274c59.955 74.65 106.752 112.077 155.494 112.077v0.717c49.254-0.051 96.461-36.198 157.133-112.179-48.435-20.224-101.478-31.488-157.133-31.488-55.040 0-107.52 11.059-155.494 30.874zM763.853 125.696c-66.048 89.702-67.379 135.526-60.314 155.802 17.562 50.534 121.088 70.195 189.594 83.251 7.014 1.331 13.824 2.662 20.582 3.994-19.302-98.099-73.882-183.552-149.862-243.046z" />
<glyph unicode="&#xe922;" glyph-name="cross_thin" d="M584.346 448.154l424.858 424.704c20.019 20.019 20.019 52.429 0 72.448s-52.429 20.019-72.448 0l-424.806-424.755-424.858 424.755c-20.019 20.019-52.429 20.019-72.448 0s-20.019-52.429 0-72.448l424.858-424.704-424.858-424.704c-20.019-20.019-20.019-52.429 0-72.397 9.984-10.035 23.091-15.053 36.198-15.053s26.214 5.018 36.198 15.002l424.858 424.704 424.858-424.704c10.035-9.984 23.142-15.002 36.25-15.002s26.214 5.018 36.198 15.002c20.019 20.019 20.019 52.429 0 72.397l-424.858 424.755z" />
<glyph unicode="&#xe923;" glyph-name="clip" horiz-adv-x="1138" d="M1072.526 317.383l-550.571 553.188c-119.239 119.808-313.287 119.808-432.583 0-119.239-119.865-119.239-314.823 0-434.631l432.583-434.631c21.732-21.845 56.889-21.845 78.62 0s21.732 57.173 0 79.019l-432.583 434.631c-75.89 76.231-75.89 200.363 0 276.594 75.89 76.288 199.396 76.288 275.285 0l550.514-553.188c43.349-43.577 43.349-114.46 0-158.037-42.041-42.268-115.314-42.212-157.298 0l-511.204 513.707c-6.997 7.111-8.078 15.417-8.078 19.74s1.081 12.629 8.135 19.74c7.111 7.111 15.36 8.192 19.684 8.192s12.572-1.024 19.684-8.192l314.596-316.075c21.732-21.845 56.946-21.845 78.62 0 21.732 21.788 21.732 57.173 0 79.019l-314.596 316.075c-52.508 52.793-144.1 52.793-196.608 0-26.283-26.396-40.732-61.497-40.732-98.759 0-37.319 14.507-72.42 40.732-98.759l511.204-513.65c42.041-42.212 97.849-65.479 157.298-65.479 59.392 0 115.257 23.268 157.298 65.479 86.699 87.097 86.699 228.864 0 316.018z" />
<glyph unicode="&#xe924;" glyph-name="engine_thin" horiz-adv-x="1472" d="M1363.392 615.68l-57.664 28.544c-25.792 12.736-55.68 11.136-79.936-4.416-24.32-15.552-38.784-42.304-38.784-71.552v-54.592h-29.696v92.864c0 53.376-42.56 96.896-94.912 96.896h-61.632v97.856c0 52.864-42.112 95.872-93.888 95.872h-124.288v62.976h-281.728v-62.976h-124.928c-51.776 0-93.888-43.008-93.888-95.872v-33.92h-32.96c-52.352 0-94.912-43.456-94.912-96.896v-157.824h-60.288v174.464c0 26.496-20.992 47.936-46.976 47.936-25.92 0-46.976-21.44-46.976-47.936v-478.080c0-26.496 20.992-47.936 46.976-47.936 25.92 0 46.976 21.44 46.976 47.936v175.744h60.288v-162.176c0-52.864 42.112-95.872 93.888-95.872h70.144l125.248-190.72h619.968c51.776 0 93.888 43.008 93.888 95.552l0.64 96.512h30.976l0.704-55.168c0.384-29.632 15.552-56.32 40.512-71.488 24.96-15.104 55.232-15.872 80.832-1.984l55.040 29.76c27.136 14.656 43.968 43.264 43.968 74.624v435.904c0.064 32.128-18.24 61.952-46.592 75.968zM1316.096 110.656l-32.832-17.728-1.792 131.008h-216.832l-1.28-192.064h-569.792l-125.184 190.784h-120.32l0.96 448.768h126.848v129.856h530.944v-193.728l156.544-1.024v-188.736h217.472v132.224l35.2-17.408v-421.952z" />
<glyph unicode="&#xe925;" glyph-name="gas_thin" d="M1001.216 681.626c0 44.544-15.77 83.2-46.899 114.739-69.478 70.502-199.782 83.661-253.030 86.221v38.246c0 21.658-17.152 39.168-38.349 39.168h-524.442c-21.146 0-38.349-17.51-38.349-39.168v-908.032h-62.771c-20.634 0-37.376-17.101-37.376-38.195s16.742-38.246 37.376-38.246h99.328c0.614 0 1.178-0.358 1.792-0.358h524.442c0.666 0 1.178 0.358 1.843 0.358h99.328c20.634 0 37.376 17.101 37.376 38.246 0 21.094-16.742 38.195-37.376 38.195h-62.822v306.944c56.883-1.792 81.254-16.64 81.254-140.544 0-75.622 58.266-115.2 111.514-115.2s107.162 39.578 107.162 114.944c0.051 2.202 1.485 223.642 0 502.682zM926.72 681.421c0.051-9.933 0.102-19.61 0.154-29.389-48.998 5.12-67.226 26.931-71.731 120.218 17.92-8.243 34.15-18.125 46.336-30.515 16.538-16.845 25.242-36.506 25.242-60.314zM175.309 883.2h450.867v-281.6h-450.867v281.6zM175.309 12.8v512h450.867v-512h-450.867zM926.72 179.2c0-36.557-29.44-38.4-34.816-38.4s-34.458 1.843-34.458 38.4c0 194.253-84.685 215.040-156.16 217.293v409.395c21.146-1.075 48.998-4.045 78.029-9.933 4.966-152.73 44.288-208.128 147.814-219.802 0.717-227.123-0.41-394.803-0.41-396.954z" />
<glyph unicode="&#xe926;" glyph-name="tip" d="M512 960c-282.317 0-512-229.683-512-512s229.683-512 512-512c282.317 0 512 229.683 512 512s-229.683 512-512 512zM512 38.4c-225.843 0-409.6 183.757-409.6 409.6s183.757 409.6 409.6 409.6c225.843 0 409.6-183.757 409.6-409.6s-183.757-409.6-409.6-409.6zM513.843 712.602c-119.757 0-206.643-68.198-206.643-162.202h102.4c0 43.571 63.949 59.802 104.243 59.802 29.798 0 57.702-7.014 76.595-19.302 21.453-13.875 23.962-29.798 23.962-40.499 0-35.021-7.68-39.066-39.782-55.962-45.312-23.808-113.818-59.802-113.818-200.038h102.4c0 78.336 22.272 90.061 59.085 109.414 37.632 19.814 94.515 49.715 94.515 146.586 0 95.539-83.456 162.202-202.957 162.202zM460.8 140.8h102.4v102.4h-102.4v-102.4z" />
<glyph unicode="&#xe927;" glyph-name="dots" horiz-adv-x="4267" d="M512 960c-282.795 0-512-229.205-512-512s229.205-512 512-512 512 229.205 512 512-229.205 512-512 512zM2133.333 960c-282.795 0-512-229.205-512-512s229.205-512 512-512 512 229.205 512 512-229.205 512-512 512zM3754.667 960c-282.795 0-512-229.205-512-512s229.205-512 512-512 512 229.205 512 512-229.205 512-512 512z" />
<glyph unicode="&#xe928;" glyph-name="logo" horiz-adv-x="6400" d="M872.448 258.368c-14.72 7.424-21.568 17.024-27.84 27.072-120.32 193.472-241.792 386.368-360.192 581.12-35.584 58.56-81.408 86.464-149.76 84.736-97.216-2.432-194.624-2.496-291.84 0.384-35.776 1.024-42.816-10.432-42.624-43.84 1.728-292.032 1.728-584.064 2.304-876.096 0-10.88 0.896-21.76 1.408-33.024h251.456v671.168c18.432-15.296 29.312-32.128 39.872-49.216 112.832-182.208 225.536-364.48 338.368-546.624 19.904-32.128 40.192-69.824 81.344-70.656 136.192-2.944 272.512-1.088 410.624-1.088v948.16h-253.12v-692.096zM6148.096 949.376v-689.536c-15.104 9.216-21.952 19.264-28.352 29.632-119.040 192.96-239.104 385.344-356.48 579.328-34.816 57.536-80.32 84.864-147.136 83.136-87.040-2.304-174.144-1.024-261.248-1.216-23.168-0.064-46.272 0-67.2 0v-952h245.248v672.384c3.84 0.704 7.744 1.344 11.584 2.048 6.016-9.344 12.224-18.56 17.984-27.968 114.944-187.52 231.424-374.080 343.744-563.2 35.968-60.544 81.024-88.96 151.104-87.040 105.088 2.88 210.368 0.704 315.52 0.832 8.704 0 17.408 1.536 27.072 2.432v951.168h-251.84zM2576.64 556.48c-38.72 11.712-78.784 21.184-118.848 25.728-138.112 15.552-276.544 28.352-414.848 42.304-45.184 4.544-47.552 11.52-48.128 70.080-0.384 39.936 21.952 39.36 50.24 39.36 190.016-0.256 380.096 0.256 570.112 0.512 26.56 0.064 53.184 0 79.488 0v215.296c-9.792 0.64-17.472 1.664-25.152 1.664-226.24 0.064-452.48 0.512-678.72-0.512-30.144-0.128-60.928-5.376-90.24-12.8-114.368-28.992-167.104-96.832-168.576-214.656-0.704-55.68-0.64-111.36 0.064-167.040 0.768-59.712 28.224-104.832 80.064-132.928 24.576-13.312 51.52-25.984 78.656-29.888 93.824-13.632 188.096-24.384 282.368-34.048 83.136-8.576 166.656-13.824 249.92-21.44 40.576-3.712 53.12-29.504 50.624-91.328-1.6-40.128-30.4-29.568-51.776-29.632-216.064-0.576-432.128-0.384-648.192-0.384h-41.856c0-68.736 0.896-131.008-0.448-193.216-0.512-24 7.936-31.424 31.36-31.168 89.344 1.024 178.752-0.128 268.096 0.512 160.576 1.216 321.152 0.576 481.6 5.632 123.648 3.84 198.272 61.824 213.76 173.12 9.984 71.872 6.144 147.328-2.496 219.84-10.24 85.248-65.344 140.288-147.072 164.992zM3727.296 553.344c-40.32 13.76-82.88 23.68-125.184 28.48-139.264 15.872-278.848 28.608-418.24 42.624-44.544 4.48-50.176 12.416-47.424 66.56 2.176 42.496 2.176 42.56 49.28 42.624 190.016 0.32 380.096 0.576 570.112 0.832 26.56 0.064 53.056 0 79.296 0v215.36c-11.008 0.64-19.84 1.6-28.672 1.6-222.848 0.064-445.696 0.32-668.608-0.32-26.944-0.064-54.336-3.136-80.768-8.448-121.536-24.448-179.392-92.032-184.128-216.32-2.176-56.704-1.344-113.664-0.32-170.432 1.088-61.12 30.464-106.368 83.712-134.336 23.744-12.48 49.664-24.448 75.776-28.16 93.824-13.376 188.096-24.256 282.368-33.984 83.136-8.576 166.656-13.76 249.92-21.44 39.936-3.648 52.8-30.080 50.048-91.84-1.792-40-30.912-29.056-52.16-29.12-216.064-0.576-432.128-0.384-648.192-0.384h-41.984c0-66.368 1.536-126.4-0.64-186.304-1.088-30.272 8.576-38.592 38.336-38.336 145.92 1.408 291.84 0 437.824 0.832 102.848 0.576 205.824 0.64 308.544 5.568 121.856 5.888 195.968 62.912 210.56 172.736 9.728 73.088 5.568 149.504-3.008 223.168-9.344 79.936-61.248 133.312-136.448 159.040zM4771.136 921.984c-10.176 23.424-23.744 30.464-48.704 30.144-115.328-1.408-230.72-1.28-346.048-0.064-23.744 0.256-35.072-6.976-44.672-29.504-91.52-213.568-184.448-426.496-277.056-639.488-40.576-93.312-81.472-186.496-125.44-287.168 92.48 0 178.304-0.64 264.064 1.024 8.384 0.192 19.648 12.992 24.128 22.464 21.184 45.12 41.216 90.816 60.032 136.96 7.104 17.344 16.704 23.808 35.456 23.744 152.704-0.64 305.344-0.768 458.048 0.064 20.672 0.128 29.76-8.256 37.184-26.24 19.52-47.104 39.872-93.952 62.592-139.52 5.056-10.112 21.056-20.288 32.384-20.672 58.752-2.048 117.568-1.472 176.384-0.704 29.696 0.384 59.392 3.136 93.824 5.12-36.928 85.888-71.424 167.104-106.752 247.936-98.496 225.28-197.504 450.368-295.424 675.904zM4378.88 385.216c3.008 10.816 4.672 20.224 8.128 28.864 39.936 99.84 81.28 199.104 119.552 299.52 9.536 25.024 24.256 26.944 46.080 27.52 21.44 0.512 31.808-6.72 39.424-27.072 38.272-101.696 78.208-202.816 117.376-304.192 2.752-7.168 4.224-14.784 6.912-24.64h-337.472zM1561.088 950.656h-280.192c0-312.192 0.192-621.952-0.384-931.776-0.064-21.824 8.832-26.688 28.352-26.496 71.168 0.768 142.4 1.92 213.504-0.448 31.808-1.088 39.488 9.216 39.36 40.064-1.088 293.952-0.64 587.904-0.64 881.856v36.8z" />
<glyph unicode="&#xe929;" glyph-name="no_img" d="M332.8 460.8c91.75 0 166.4 74.65 166.4 166.4s-74.65 166.4-166.4 166.4-166.4-74.65-166.4-166.4 74.65-166.4 166.4-166.4zM332.8 716.8c49.408 0 89.6-40.192 89.6-89.6s-40.192-89.6-89.6-89.6-89.6 40.192-89.6 89.6 40.192 89.6 89.6 89.6zM947.2 960h-870.4c-42.419 0-76.8-34.381-76.8-76.8v-870.4c0-42.419 34.381-76.8 76.8-76.8h870.4c42.419 0 76.8 34.381 76.8 76.8v870.4c0 42.419-34.381 76.8-76.8 76.8zM947.2 12.8h-870.4v74.214c0.486 0.435 1.101 0.563 1.536 1.024l169.984 169.984c6.861 6.835 17.536 7.731 25.395 2.099l139.136-99.379c16.128-11.546 38.374-8.883 51.328 6.093l291.942 336.845c4.864 5.632 10.982 6.682 14.182 6.784 3.021 0.077 9.37-0.461 14.643-5.76l160.666-160.666c0.461-0.461 1.075-0.589 1.536-1.024v-330.214zM947.2 451.098l-107.904 107.904c-18.867 18.893-45.133 29.158-71.706 28.211-26.675-0.947-51.994-13.056-69.478-33.229l-269.030-310.426-110.694 79.078c-38.554 27.546-90.829 23.194-124.339-10.291l-117.248-117.248v688.102h870.4v-432.102z" />
<glyph unicode="&#xe92a;" glyph-name="info" d="M512 960c-282.317 0-512-229.683-512-512s229.683-512 512-512c282.317 0 512 229.734 512 512 0 282.317-229.683 512-512 512zM512 38.4c-225.843 0-409.6 183.757-409.6 409.6s183.757 409.6 409.6 409.6 409.6-183.757 409.6-409.6c0-225.843-183.757-409.6-409.6-409.6zM460.8 192h102.4v307.2h-102.4v-307.2zM460.8 601.6h102.4v102.4h-102.4v-102.4z" />
<glyph unicode="&#xe92b;" glyph-name="s_inst" d="M131.379 960h760.934c72.243 0 131.379-53.504 131.379-131.43v-761.139c0-77.926-59.136-131.43-131.379-131.43h-760.934c-72.243 0-131.379 53.504-131.379 131.43v761.139c0 77.926 59.136 131.43 131.379 131.43v0zM745.779 846.234c-25.344 0-46.080-20.736-46.080-46.080v-110.336c0-25.395 20.736-46.131 46.080-46.131h115.712c25.293 0 46.029 20.736 46.029 46.131v110.336c0 25.344-20.736 46.080-46.029 46.080h-115.712zM908.032 527.002h-90.112c8.499-27.853 13.158-57.344 13.158-87.859 0-170.342-142.49-308.429-318.208-308.429s-318.208 138.086-318.208 308.429c0 30.515 4.608 60.006 13.158 87.859h-94.054v-432.589c0-22.374 18.278-40.704 40.704-40.704h712.858c22.426 0 40.704 18.33 40.704 40.704v432.589zM512.819 649.523c-113.51 0-205.619-89.242-205.619-199.322s92.058-199.27 205.619-199.27c113.51 0 205.619 89.242 205.619 199.27 0 110.080-92.006 199.322-205.619 199.322v0z" />
<glyph unicode="&#xe92c;" glyph-name="s_yt" horiz-adv-x="1126" d="M1106.893 725.76c-13.773 62.566-62.771 108.646-121.754 115.507-139.674 16.282-281.088 16.333-421.786 16.282-140.749 0.051-282.163 0-421.837-16.282-58.931-6.861-107.93-52.941-121.651-115.507-19.661-88.934-19.866-186.112-19.866-277.76s0-188.826 19.661-277.811c13.722-62.464 62.72-108.646 121.702-115.507 139.674-16.23 280.986-16.333 421.734-16.23 140.8-0.102 282.163 0 421.786 16.23 58.982 6.861 107.981 52.992 121.754 115.507 19.661 88.986 19.712 186.163 19.712 277.811s0.154 188.826-19.456 277.76v0zM417.843 265.574v388.659c119.347-64.973 237.926-129.485 358.042-194.867-119.757-64.87-238.387-129.024-358.042-193.792v0z" />
<glyph unicode="&#xe92d;" glyph-name="transmission" d="M921.6 755.2h-460.8c0 112.947-91.853 204.8-204.8 204.8s-204.8-91.853-204.8-204.8c0-4.966 1.126-9.677 1.485-14.541-31.283-19.046-52.685-54.835-52.685-96.358v-597.35c0-61.184 45.926-110.95 102.4-110.95h819.2c56.474 0 102.4 49.766 102.4 110.95v597.35c0 61.133-45.926 110.899-102.4 110.899zM256 857.6c56.474 0 102.4-45.926 102.4-102.4 0-10.394-2.048-20.275-4.915-29.747l-1.536-4.301c-10.65-29.901-34.304-52.378-62.925-62.413-1.485-0.512-3.021-0.973-4.557-1.434-9.165-2.714-18.637-4.506-28.467-4.506s-19.302 1.792-28.467 4.557c-1.536 0.461-3.072 0.922-4.557 1.434-28.672 9.984-52.275 32.461-62.925 62.362l-1.485 4.25c-2.918 9.472-4.966 19.354-4.966 29.798 0 56.474 45.926 102.4 102.4 102.4zM921.6 46.95c0-5.222-2.048-8.243-0.563-8.55l-815.565-0.768c-0.614 0.461-3.072 3.533-3.072 9.318v573.594c0.666-0.768 1.587-1.331 2.253-2.099 7.629-8.448 15.974-16.026 24.934-23.091 2.202-1.741 4.198-3.686 6.451-5.325 9.216-6.758 19.098-12.442 29.338-17.562 2.406-1.229 4.608-2.714 7.066-3.84 10.342-4.608 21.248-8.038 32.358-10.957v-263.27h153.6v-153.6h102.4v153.6h153.6v-153.6h102.4v153.6h102.4v256h-102.4v-153.6h-153.6v153.6h-102.4v-153.6h-153.6v160.358c8.294 2.15 16.333 4.915 24.218 8.038 3.84 1.536 7.424 3.328 11.11 5.069 7.27 3.43 14.285 7.219 21.094 11.469 4.352 2.714 8.499 5.53 12.646 8.499 5.325 3.891 10.342 8.192 15.309 12.646 6.451 5.734 12.442 11.878 18.125 18.432 3.482 3.994 6.963 7.987 10.138 12.288 3.84 5.171 7.424 10.547 10.803 16.128 0.614 1.075 1.434 1.997 2.048 3.072h486.502c0.973-1.331 2.406-4.147 2.406-8.499v-597.35z" />
<glyph unicode="&#xe92e;" glyph-name="transmission_thin" d="M934.861 755.251h-438.323c0 112.896-89.958 204.8-200.55 204.8s-200.55-91.853-200.55-204.8c0-0.563 0.154-1.024 0.154-1.587-42.598-7.578-74.24-47.002-74.24-96.256v-620.902c0-55.398 39.987-100.506 89.088-100.506h824.422c49.152 0 89.139 45.056 89.139 100.506v620.902c0 54.835-39.168 97.843-89.139 97.843zM296.038 883.251c69.12 0 125.338-57.446 125.338-128 0-70.605-56.218-128-125.338-128s-125.338 57.446-125.338 128c0 70.554 56.218 128 125.338 128zM948.787 36.506c0-14.438-8.243-23.706-13.926-23.706h-824.422c-5.683 0-13.926 9.216-13.926 23.706v620.902c0 11.981 5.939 20.992 13.875 20.992 24.576-61.645 77.619-108.288 142.438-122.931-2.458-5.018-4.147-10.445-4.147-16.435v-142.234h-1.741v-33.792c0-3.123 1.075-5.888 1.741-8.806v-8.602h2.509c6.4-13.363 19.507-22.733 35.072-22.733h87.757v-170.65c0-20.429 16.23-36.966 36.198-36.966 20.019 0 36.198 16.538 36.198 36.966v170.65h177.92v-170.65c0-20.429 16.23-36.966 36.198-36.966 20.019 0 36.198 16.538 36.198 36.966v170.65h86.323c15.514 0 28.672 9.421 35.072 22.733h3.942v15.667c0.051 0.614 0.358 1.126 0.358 1.792v33.741h-0.358v142.234c0 20.429-16.23 36.966-36.198 36.966-20.019 0-36.198-16.538-36.198-36.966v-142.234h-178.278v142.234c0 20.429-16.23 36.966-36.198 36.966-20.019 0-36.198-16.538-36.198-36.966v-142.234h-177.92v142.234c0 4.864-1.024 9.472-2.714 13.722 74.138 8.499 136.141 57.549 163.277 125.645h453.222c7.936 0 13.926-9.011 13.926-21.043v-620.851z" />
<glyph unicode="&#xe92f;" glyph-name="trunk" d="M800.427 879.835l190.22-91.916 33.597 69.632-190.22 91.916c-40.472 19.505-89.234 11.459-121.32-20.041l-266.289-262.29-118.199 109.422c-37.986 35.157-85.236 56.856-136.582 62.805l-179.785 21.748-9.265-76.8 179.931-21.748c35.157-4.096 67.34-18.871 93.184-42.813l169.496-156.818 306.566-59.441c14.434-2.779 25.405-14.482 27.404-29.062l13.507-101.181h-123.27v-77.336h167.4c6.534 0 11.8-5.315 11.8-11.8v-82.164l-83.87-34.914h-153.795c-17.554 88.649-95.72 155.697-189.391 155.697s-171.788-67.048-189.391-155.697h-232.448v-77.336h232.789c18.334-87.625 96.061-153.649 189.001-153.649s170.667 66.024 189.001 153.649h169.691l98.792 41.594c28.477 11.995 46.86 39.741 46.86 70.656v82.164c0 36.815-22.43 68.51-54.321 82.115l-15.896 118.491c-6.339 47.543-42.228 85.577-89.283 94.744l-249.758 48.421 250.246 246.443c8.923 8.68 22.479 10.874 33.597 5.51zM421.547 13.385c-63.927 0-115.907 52.029-115.907 116.005s51.98 116.005 115.907 116.005c63.927 0 115.907-52.029 115.907-116.005s-52.029-116.005-115.907-116.005z" />
<glyph unicode="&#xe930;" glyph-name="video" d="M996.557 485.325c-16.896 8.858-37.222 7.629-52.89-3.226l-226.867-156.979v97.28c0 15.821-3.891 30.618-10.342 43.981 67.994 46.080 112.742 123.955 112.742 212.019 0 141.158-114.842 256-256 256-102.4 0-190.31-60.826-231.219-147.917-35.072 28.058-78.899 45.517-127.181 45.517-112.947 0-204.8-91.853-204.8-204.8 0-46.182 15.923-88.371 41.83-122.675-25.242-18.637-41.83-48.384-41.83-82.125v-358.4c0-56.474 45.926-102.4 102.4-102.4h512c56.474 0 102.4 45.926 102.4 102.4v65.843l226.867-156.979c8.704-6.042 18.893-9.114 29.133-9.114 8.141 0 16.282 1.946 23.757 5.837 16.845 8.858 27.443 26.317 27.443 45.363v425.062c0 18.995-10.598 36.454-27.443 45.312zM563.2 832c84.685 0 153.6-68.915 153.6-153.6s-68.915-153.6-153.6-153.6c-84.685 0-153.6 68.915-153.6 153.6 0 84.736 68.915 153.6 153.6 153.6zM204.8 729.6c56.474 0 102.4-45.926 102.4-102.4s-45.926-102.4-102.4-102.4c-56.474 0-102.4 45.926-102.4 102.4s45.926 102.4 102.4 102.4zM102.4 64v358.4h512l0.051-194.611c0-0.102-0.051-0.205-0.051-0.307s0.051-0.205 0.051-0.307v-163.174h-512.051zM921.6 112.64l-165.99 114.842 165.99 114.842v-229.683z" />
<glyph unicode="&#xe931;" glyph-name="chassis" horiz-adv-x="1078" d="M1051.648 225.011l10.59-14.579c12.045-16.519 13.77-38.104 4.554-56.347-9.216-18.27-27.621-29.615-47.966-29.615h-232.852c-27.54-108.167-125.036-188.47-241.098-188.47-137.378 0-249.155 112.344-249.155 250.422 0 138.105 111.778 250.449 249.155 250.449 131.045 0 238.511-102.265 248.185-231.532h173.272l-15.71 21.612 23.579 24.468c-0.108 0 23.309 29.427 23.309 103.262 0 43.466-48.667 104.475-98.277 148.264-3.072-0.431-6.036-1.293-9.27-0.97-44.301 4.069-91.19 4.258-120.859 1.32 6.521-32.040 72.273-61.009 139.56-59.5 21.854 0.62 40.933-16.411 41.849-38.723 0.916-22.285-16.33-41.122-38.508-42.038-2.237-0.108-6.387-0.243-12.099-0.243-45.218 0-187.176 35.166-224.93 136.003-6.818 18.163-4.177 37.214 7.222 52.278 4.716 6.198 14.767 19.052 49.017 27.513-104.825 22.824-261.47 47.508-396.773 65.994-20.776 2.829-39.64 12.234-54.568 27.244l-159.609 160.445c-30.073 30.235-70.063 46.861-112.613 46.861h-7.869v80.869h7.869c64.027 0 124.227-25.061 169.499-70.575l159.609-160.445c2.398-2.398 5.255-3.827 8.488-4.285 91.648-12.504 398.74-56.266 503.727-93.831 78.39-28.052 228.972-163.948 228.972-276.184 0-62.733-13.77-104.583-26.301-129.671zM544.876 356.029c-93.022 0-168.717-76.099-168.717-169.607 0-93.48 75.695-169.553 168.717-169.553s168.691 76.072 168.691 169.553c0 93.507-75.668 169.607-168.691 169.607zM184.185 611.436l-38.238 52.089h-92.537c-22.205 0-40.205 18.082-40.205 40.421s18.001 40.421 40.205 40.421h133.174l62.329-84.911c13.177-17.974 9.378-43.277-8.488-56.536-7.195-5.336-15.549-7.896-23.848-7.896-12.342 0-24.522 5.686-32.391 16.411zM267.938 124.47h-268.153v80.869h268.153v-80.869z" />
<glyph unicode="&#xe932;" glyph-name="gear" horiz-adv-x="947" d="M755.2 320h128c35.277 0 64-28.698 64-64v-256c0-35.277-28.723-64-64-64h-128c-35.277 0-64 28.723-64 64v89.6h-96.128c-16.435-51.738-64.358-89.6-121.472-89.6s-105.037 37.862-121.472 89.6h-96.128v-89.6c0-35.277-28.723-64-64-64h-128c-35.277 0-64 28.723-64 64v256c0 35.302 28.723 64 64 64h128c35.277 0 64-28.698 64-64v-89.6h96.128c12.57 39.552 43.52 70.502 83.072 83.072v397.082c-39.552 12.544-70.502 43.494-83.072 83.046h-96.128v-89.6c0-35.277-28.723-64-64-64h-128c-35.277 0-64 28.723-64 64v256c0 35.302 28.723 64 64 64h128c35.277 0 64-28.698 64-64v-89.6h96.128c16.435 51.738 64.358 89.6 121.472 89.6s105.037-37.862 121.472-89.6h96.128v89.6c0 35.302 28.723 64 64 64h128c35.277 0 64-28.698 64-64v-256c0-35.277-28.723-64-64-64h-128c-35.277 0-64 28.723-64 64v89.6h-96.128c-12.57-39.552-43.52-70.502-83.072-83.046v-397.082c39.552-12.57 70.502-43.52 83.072-83.072h96.128v89.6c0 35.302 28.723 64 64 64zM768 12.8h102.4v230.4h-102.4v-230.4zM179.2 243.2h-102.4v-230.4h102.4v230.4zM179.2 883.2h-102.4v-230.4h102.4v230.4zM768 652.8h102.4v230.4h-102.4v-230.4zM524.8 768c0 28.237-22.963 51.2-51.2 51.2s-51.2-22.963-51.2-51.2c0-28.237 22.963-51.2 51.2-51.2s51.2 22.963 51.2 51.2zM473.6 179.2c-28.237 0-51.2-22.963-51.2-51.2s22.963-51.2 51.2-51.2c28.237 0 51.2 22.963 51.2 51.2s-22.963 51.2-51.2 51.2z" />
<glyph unicode="&#xe933;" glyph-name="year" d="M947.2-64h-870.4c-42.419 0-76.8 34.381-76.8 76.8v793.6c0 42.419 34.381 76.8 76.8 76.8h153.6v52.403c0 13.466 10.931 24.397 24.397 24.397h27.981c13.491 0 24.422-10.931 24.422-24.397v-52.403h409.6v52.403c0 13.466 10.931 24.397 24.397 24.397h27.981c13.491 0 24.422-10.931 24.422-24.397v-52.403h153.6c42.419 0 76.8-34.381 76.8-76.8v-793.6c0-42.419-34.381-76.8-76.8-76.8zM947.2 806.4h-153.6v-77.978c0-13.491-10.931-24.422-24.422-24.422h-27.981c-13.466 0-24.397 10.931-24.397 24.422v77.978h-409.6v-77.978c0-13.491-10.931-24.422-24.422-24.422h-27.981c-13.466 0-24.397 10.931-24.397 24.422v77.978h-153.6v-153.6h870.4v153.6zM947.2 576h-870.4v-563.2h870.4v563.2zM192 524.8h128c21.197 0 38.4-17.178 38.4-38.4v-128c0-21.197-17.203-38.4-38.4-38.4h-128c-21.197 0-38.4 17.203-38.4 38.4v128c0 21.222 17.203 38.4 38.4 38.4zM230.4 396.8h51.2v51.2h-51.2v-51.2zM192 268.8h128c21.197 0 38.4-17.178 38.4-38.4v-128c0-21.197-17.203-38.4-38.4-38.4h-128c-21.197 0-38.4 17.203-38.4 38.4v128c0 21.222 17.203 38.4 38.4 38.4zM230.4 140.8h51.2v51.2h-51.2v-51.2zM448 524.8h128c21.197 0 38.4-17.178 38.4-38.4v-128c0-21.197-17.203-38.4-38.4-38.4h-128c-21.197 0-38.4 17.203-38.4 38.4v128c0 21.222 17.203 38.4 38.4 38.4zM486.4 396.8h51.2v51.2h-51.2v-51.2zM448 268.8h128c21.197 0 38.4-17.178 38.4-38.4v-128c0-21.197-17.203-38.4-38.4-38.4h-128c-21.197 0-38.4 17.203-38.4 38.4v128c0 21.222 17.203 38.4 38.4 38.4zM486.4 140.8h51.2v51.2h-51.2v-51.2zM704 524.8h128c21.197 0 38.4-17.178 38.4-38.4v-128c0-21.197-17.203-38.4-38.4-38.4h-128c-21.197 0-38.4 17.203-38.4 38.4v128c0 21.222 17.203 38.4 38.4 38.4zM742.4 396.8h51.2v51.2h-51.2v-51.2zM704 268.8h128c21.197 0 38.4-17.178 38.4-38.4v-128c0-21.197-17.203-38.4-38.4-38.4h-128c-21.197 0-38.4 17.203-38.4 38.4v128c0 21.222 17.203 38.4 38.4 38.4zM742.4 140.8h51.2v51.2h-51.2v-51.2z" />
<glyph unicode="&#xe934;" glyph-name="mileage" horiz-adv-x="1205" d="M1063.123-44.062c-8.433-12.258-22.317-19.576-37.195-19.576h-847.179c-14.848 0-28.732 7.319-37.165 19.576-73.547 106.948-141.583 228.713-141.583 394.089 0 336.414 270.216 610.093 602.353 610.093s602.353-272.836 602.353-608.226c0-167.454-71.59-294.129-141.583-395.957zM995.268 682.315l-79.27-79.541-42.586 42.737 80.685 80.956c-84.932 81.468-197.24 134.084-321.626 141.463v-115.561h-60.235v115.561c-124.265-7.409-236.484-60.085-321.385-141.704l80.444-80.715-42.586-42.737-78.968 79.209c-66.289-80.474-109.146-181.489-117.489-292.292h118.573v-60.446h-119.537c4.036-98.515 36.171-179.682 85.745-261.662l80.023 80.324 42.616-42.737-77.884-78.155h761.133l-77.884 78.155 42.586 42.737 79.962-80.233c56.139 93.816 82.071 174.11 85.896 261.572h-119.597v60.446h118.633c-7.981 110.923-50.808 212.058-117.248 292.623zM602.353 72.252c-91.347 0-165.647 74.541-165.647 166.219 0 29.335 8.252 56.501 21.594 80.444l-158.961 159.503c-17.649 17.679-17.649 46.411 0 64.090 17.649 17.709 46.261 17.709 63.88 0l158.961-159.503c23.853 13.402 50.959 21.685 80.173 21.685 91.347 0 165.647-74.571 165.647-166.219 0-91.678-74.3-166.219-165.647-166.219zM602.353 314.007c-41.502 0-75.294-33.882-75.294-75.535s33.792-75.565 75.294-75.565c41.502 0 75.294 33.912 75.294 75.565s-33.792 75.535-75.294 75.535z" />
<glyph unicode="&#xe935;" glyph-name="attention" horiz-adv-x="1129" d="M1111.893-8.306c-20.196-34.873-55.979-55.694-95.63-55.694h-905.557c-39.652 0-75.435 20.821-95.63 55.694-20.594 35.556-20.992 78.165-0.967 114.062l453.006 797.298c19.797 35.499 55.922 56.946 96.37 56.946 40.391 0 76.402-21.333 96.484-57.116l452.665-796.729c20.252-36.295 19.854-78.905-0.74-114.46zM561.948 846.507c-0.057 0.114-0.114 0.284-0.228 0.398l-0.114 0.228-449.365-797.525 904.021 0.171-454.315 796.729zM619.861 618.667v-284.444h-112.754v284.444h112.754zM619.861 163.556h-112.754v113.778h112.754v-113.778z" />
<glyph unicode="&#xe936;" glyph-name="location_tel" horiz-adv-x="709" d="M534.567 248.674c-75.54-69.986-140.721-130.363-140.721-273.29 0-21.74-17.605-39.385-39.385-39.385s-39.385 17.644-39.385 39.385c0 142.927-65.182 203.303-140.721 273.29-81.723 75.697-174.356 161.516-174.356 356.864 0 195.466 158.996 354.462 354.462 354.462s354.462-158.996 354.462-354.462c0-195.348-92.633-281.167-174.356-356.864zM354.462 881.231c-151.985 0-275.692-123.668-275.692-275.692 0-160.965 72.428-228.037 149.11-299.087 45.332-41.984 93.696-87.867 126.582-153.403 32.886 65.536 81.25 111.419 126.582 153.403 76.682 71.050 149.11 138.122 149.11 299.087 0 152.025-123.707 275.692-275.692 275.692zM465.29 447.685c-94.366-10.004-268.367 173.489-268.367 268.367 0 11.422 18.471 28.278 34.265 40.606 12.327 9.531 29.854 8.31 40.842-2.718l36.194-36.194c9.452-9.413 11.776-23.867 5.829-35.801l-18.274-36.51c-23.237-23.237 74.319-123.471 98.895-98.855 0.354 0.354 20.441 10.358 36.549 18.353 11.934 5.908 26.27 3.545 35.722-5.868l35.919-35.958c11.106-11.106 12.288-28.869 2.442-41.157-12.288-15.281-28.83-33.083-40.015-34.265z" />
<glyph unicode="&#xe937;" glyph-name="menu" horiz-adv-x="1336" d="M0-64v133.565h1335.652v-133.565h-1335.652zM0 514.783h1335.652v-133.565h-1335.652v133.565zM0 960h1335.652v-133.565h-1335.652v133.565z" />
<glyph unicode="&#xe938;" glyph-name="desktop" d="M921.6 140.8h-256v-102.4h153.6c28.262 0 51.2-22.938 51.2-51.2s-22.938-51.2-51.2-51.2h-614.4c-28.262 0-51.2 22.938-51.2 51.2s22.938 51.2 51.2 51.2h153.6v102.4h-256c-56.474 0-102.4 45.926-102.4 102.4v614.4c0 56.474 45.926 102.4 102.4 102.4h819.2c56.474 0 102.4-45.926 102.4-102.4v-614.4c0-56.474-45.926-102.4-102.4-102.4zM460.8 38.4h102.4v102.4h-102.4v-102.4zM921.6 857.6h-819.2v-614.4h819.251l-0.051 614.4z" />
<glyph unicode="&#xe939;" glyph-name="mobile" horiz-adv-x="614" d="M512-64h-409.6c-56.474 0-102.4 45.978-102.4 102.4v819.2c0 56.474 45.926 102.4 102.4 102.4h409.6c56.474 0 102.4-45.926 102.4-102.4v-819.2c0-56.422-45.926-102.4-102.4-102.4zM512 857.6h-409.6v-819.2h409.651l-0.051 819.2zM358.4 89.6h-102.4v102.4h102.4v-102.4z" />
<glyph unicode="&#xe93a;" glyph-name="location2" d="M512 960c-176.732 0-320-143.268-320-320 0-320 320-704 320-704s320 384 320 704c0 176.732-143.27 320-320 320zM512 448c-106.040 0-192 85.96-192 192s85.96 192 192 192 192-85.96 192-192-85.96-192-192-192z" />
</font>
</defs>
</svg>
