<svg xmlns="http://www.w3.org/2000/svg" viewBox="0 0 200 45"><defs><style>.cls-1{fill:#fff;}.cls-2{fill:#ce1641;}</style></defs><title>guarantee</title><g id="Слой_2" data-name="Слой 2"><g id="Layer_1" data-name="Layer 1"><rect class="cls-1" width="200" height="45"/><path class="cls-2" d="M30.87,16.93a3.62,3.62,0,0,0,3.65-3.79,3.66,3.66,0,0,0-3.67-3.91,3.57,3.57,0,0,0-3.59,3.83A3.59,3.59,0,0,0,30.87,16.93Zm0-6.18c1.28,0,1.85,1,1.85,2.37,0,1-.48,2.29-1.82,2.29s-1.82-1.2-1.82-2.38C29.07,12.06,29.5,10.75,30.86,10.75Z"/><path class="cls-2" d="M43.71,18.26v-3h-.93V9.45H37v1.44c0,3.11-.53,4.4-1.6,4.4v3h1.71V16.71H42v1.54ZM41,15.3H37.9c.43-.46.85-1.51.85-4.08v-.34H41Z"/><path class="cls-2" d="M48.4,16.93a3.62,3.62,0,0,0,3.65-3.79,3.66,3.66,0,0,0-3.67-3.91,3.57,3.57,0,0,0-3.59,3.83A3.59,3.59,0,0,0,48.4,16.93Zm0-6.18c1.27,0,1.85,1,1.85,2.37,0,1-.48,2.29-1.82,2.29S46.6,14.21,46.6,13C46.6,12.06,47,10.75,48.39,10.75Z"/><path class="cls-2" d="M60,14.47c0-1.56-1-2.18-2.4-2.18h-2V10.87h3.74V9.45H53.77v7.26h3.66C59.58,16.71,60,15.36,60,14.47Zm-4.4.93V13.61H57c.52,0,1.17.09,1.17.88s-.56.9-1.35.9Z"/><path class="cls-2" d="M67.85,11.93c0-1.67-.9-2.48-2.62-2.48H61.64v7.26h1.83V14.33h1.45C66.24,14.33,67.85,13.76,67.85,11.93ZM63.47,13v-2.2h1.14c.57,0,1.43,0,1.43,1.06S65.46,13,64.64,13Z"/><polygon class="cls-2" points="74.99 15.29 71.13 15.29 71.13 13.57 74.43 13.57 74.43 12.19 71.13 12.19 71.13 10.87 74.67 10.87 74.67 9.45 69.3 9.45 69.3 16.71 74.99 16.71 74.99 15.29"/><polygon class="cls-2" points="78.36 13.62 81.02 13.62 81.02 16.71 82.85 16.71 82.85 9.45 81.02 9.45 81.02 12.08 78.36 12.08 78.36 9.45 76.53 9.45 76.53 16.71 78.36 16.71 78.36 13.62"/><path class="cls-2" d="M91.82,13.14a3.66,3.66,0,0,0-3.67-3.91,3.57,3.57,0,0,0-3.59,3.83,3.64,3.64,0,1,0,7.26.08ZM86.37,13c0-1,.42-2.28,1.79-2.28S90,11.8,90,13.11c0,1-.48,2.29-1.82,2.29S86.37,14.21,86.37,13Z"/><polygon class="cls-2" points="98.96 13.62 101.62 13.62 101.62 16.71 103.45 16.71 103.45 9.45 101.62 9.45 101.62 12.08 98.96 12.08 98.96 9.45 97.13 9.45 97.13 16.71 98.96 16.71 98.96 13.62"/><polygon class="cls-2" points="107.26 15.89 110.06 12.54 110.06 16.71 111.89 16.71 111.89 9.45 110.06 9.45 110.06 10.24 107.26 13.59 107.26 9.45 105.43 9.45 105.43 16.71 107.26 16.71 107.26 15.89"/><path class="cls-2" d="M117.09,16.93a3.26,3.26,0,0,0,3.13-1.87l-1.43-.73a1.68,1.68,0,0,1-1.57,1.08c-1,0-1.79-.79-1.79-2.39,0-1.2.62-2.29,1.79-2.29a1.57,1.57,0,0,1,1.54,1.1l1.44-.72a3.09,3.09,0,0,0-3.06-1.88,3.61,3.61,0,0,0-3.52,3.85C113.61,15.53,115.16,16.93,117.09,16.93Z"/><path class="cls-2" d="M127.83,15.06l-1.43-.73a1.68,1.68,0,0,1-1.57,1.08c-1,0-1.79-.79-1.79-2.39,0-1.2.62-2.29,1.79-2.29a1.57,1.57,0,0,1,1.54,1.1l1.44-.72a3.09,3.09,0,0,0-3.06-1.88,3.61,3.61,0,0,0-3.52,3.85c0,2.46,1.55,3.86,3.48,3.86A3.26,3.26,0,0,0,127.83,15.06Z"/><path class="cls-2" d="M135.88,16.71,133.2,9.45h-1.89l-2.7,7.26h1.93l.36-1.16h2.67l.36,1.16Zm-4.55-2.47.89-3.06.95,3.06Z"/><polygon class="cls-2" points="139.03 13.62 141.68 13.62 141.68 16.71 143.51 16.71 143.51 9.45 141.68 9.45 141.68 12.08 139.03 12.08 139.03 9.45 137.19 9.45 137.19 16.71 139.03 16.71 139.03 13.62"/><path class="cls-2" d="M32.68,22.82A3.74,3.74,0,0,1,36.59,26l1.26-.69a4.94,4.94,0,0,0-5.21-3.69c-4.82,0-5.82,4.62-5.82,7.56,0,3.21,1.14,7.4,6,7.4,2.53,0,4-1.13,5.07-3.47l-1.22-.77a3.7,3.7,0,0,1-3.7,3c-4.33,0-4.76-4-4.76-6.35C28.17,27.07,28.68,22.82,32.68,22.82Z"/><polygon class="cls-2" points="52.5 21.97 43.63 21.97 43.63 36.2 44.91 36.2 44.91 23.22 52.5 23.22 52.5 21.97"/><path class="cls-2" d="M56,22,50.4,36.2h1.43l1.57-4.29h6.11l1.57,4.29h1.43L57.06,22Zm-2.15,8.85,2.67-7.28,2.63,7.28Z"/><path class="cls-2" d="M73.26,28.44A4.43,4.43,0,0,0,74,25.86a4.24,4.24,0,0,0-.89-2.76c-.75-.89-1.53-1.13-3.93-1.13H63.72V36.2H65V29.79h3.6C70.88,29.79,72.29,29.73,73.26,28.44Zm-3.56.14H65V23.26h4.55c1.06,0,2.15,0,2.79,1a3.19,3.19,0,0,1,.39,1.61C72.71,27.9,71.4,28.58,69.7,28.58Z"/><path class="cls-2" d="M78.34,22,72.77,36.2H74.2l1.57-4.29h6.11l1.57,4.29h1.43L79.43,22ZM76.2,30.82l2.67-7.28,2.63,7.28Z"/><polygon class="cls-2" points="95.76 28.32 87.36 28.32 87.36 21.97 86.08 21.97 86.08 36.2 87.36 36.2 87.36 29.53 95.76 29.53 95.76 36.2 97.03 36.2 97.03 21.97 95.76 21.97 95.76 28.32"/><polygon class="cls-2" points="98.28 23.22 102.6 23.22 102.6 36.2 103.88 36.2 103.88 23.22 108.19 23.22 108.19 21.97 98.28 21.97 98.28 23.22"/><polygon class="cls-2" points="119.34 23.32 110.71 32.84 110.71 21.97 109.43 21.97 109.43 36.2 110.71 36.2 110.71 34.57 119.34 25.05 119.34 36.2 120.61 36.2 120.61 21.97 119.34 21.97 119.34 23.32"/><polygon class="cls-2" points="124.2 29.51 131.13 29.51 131.13 28.3 124.2 28.3 124.2 23.18 131.84 23.18 131.84 21.97 122.92 21.97 122.92 36.2 132.33 36.2 132.33 34.99 124.2 34.99 124.2 29.51"/><path class="cls-2" d="M139.38,20.88a2.64,2.64,0,0,0,2.8-2.22l-1-.2a1.62,1.62,0,0,1-1.8,1.29,1.64,1.64,0,0,1-1.8-1.29l-1,.2A2.64,2.64,0,0,0,139.38,20.88Z"/><polygon class="cls-2" points="143.69 23.32 135.06 32.76 135.06 21.97 133.79 21.97 133.79 36.2 135.06 36.2 135.06 34.57 143.69 25.14 143.69 36.2 144.97 36.2 144.97 21.97 143.69 21.97 143.69 23.32"/><path class="cls-2" d="M175.73,6a1.34,1.34,0,0,0-1.84.48L171,11.34a3.08,3.08,0,0,0-.51-.05H154.4a3.09,3.09,0,0,0-3.09,3.09V30.51a3.09,3.09,0,0,0,3.09,3.09h16.12a3.09,3.09,0,0,0,3.09-3.09V14.38a3.05,3.05,0,0,0-.38-1.46l3-5.09A1.34,1.34,0,0,0,175.73,6Zm-3.46,24.52a1.75,1.75,0,0,1-1.74,1.74H154.4a1.75,1.75,0,0,1-1.74-1.74V14.38a1.75,1.75,0,0,1,1.74-1.74h15.88l-7.92,13.52-6-8.69A1.34,1.34,0,0,0,154.13,19l7.23,10.41a1.34,1.34,0,0,0,1.1.58h.05a1.34,1.34,0,0,0,1.11-.66l8.65-14.77Z"/></g></g></svg>