<svg xmlns="http://www.w3.org/2000/svg" viewBox="0 0 200 45"><defs><style>.cls-1{fill:#c3002f;}.cls-2{fill:#fff;}</style></defs><title>tested</title><g id="Слой_2" data-name="Слой 2"><g id="Layer_1" data-name="Layer 1"><rect class="cls-1" width="200" height="45"/><path class="cls-2" d="M165.81,8.5a9.71,9.71,0,1,0,9.71,9.71A9.72,9.72,0,0,0,165.81,8.5Zm0,16.72a7,7,0,1,1,7-7A7,7,0,0,1,165.81,25.23Z"/><path class="cls-2" d="M155.37,26.79l-6.57,6.57a1.34,1.34,0,1,0,1.9,1.9l6.57-6.57a1.34,1.34,0,0,0-1.9-1.9Z"/><path class="cls-2" d="M158.07,25a.67.67,0,1,0-1,1l.94.94a.67.67,0,1,0,.95-1Z"/><path class="cls-2" d="M30.71,16.91a3.62,3.62,0,0,0,3.65-3.79A3.66,3.66,0,0,0,30.69,9.2,3.57,3.57,0,0,0,27.1,13,3.59,3.59,0,0,0,30.71,16.91Zm0-6.18c1.28,0,1.85,1,1.85,2.37,0,1-.48,2.29-1.82,2.29s-1.82-1.2-1.82-2.38C28.91,12,29.33,10.73,30.7,10.73Z"/><path class="cls-2" d="M37,16.69h4.85v1.54h1.71v-3h-.93V9.43H36.87v1.44c0,3.11-.53,4.4-1.6,4.4v3H37Zm1.6-5.5v-.34h2.2v4.42H37.72C38.16,14.81,38.58,13.76,38.58,11.19Z"/><path class="cls-2" d="M48.22,16.91a3.62,3.62,0,0,0,3.65-3.79A3.66,3.66,0,0,0,48.19,9.2,3.57,3.57,0,0,0,44.61,13,3.59,3.59,0,0,0,48.22,16.91Zm0-6.18c1.27,0,1.85,1,1.85,2.37,0,1-.48,2.29-1.82,2.29s-1.82-1.2-1.82-2.38C46.42,12,46.84,10.73,48.2,10.73Z"/><path class="cls-2" d="M59.81,14.45c0-1.56-1-2.18-2.4-2.18h-2V10.85h3.74V9.43H53.57v7.26h3.66C59.38,16.69,59.81,15.33,59.81,14.45Zm-4.4.93V13.58h1.4c.52,0,1.17.09,1.17.88s-.56.91-1.35.91Z"/><path class="cls-2" d="M65,9.43H61.43v7.26h1.83V14.3h1.45c1.32,0,2.93-.57,2.93-2.4C67.64,10.24,66.74,9.43,65,9.43ZM64.44,13H63.26v-2.2H64.4c.57,0,1.43,0,1.43,1.06S65.26,13,64.44,13Z"/><polygon class="cls-2" points="74.77 15.27 70.92 15.27 70.92 13.54 74.22 13.54 74.22 12.16 70.92 12.16 70.92 10.85 74.45 10.85 74.45 9.43 69.08 9.43 69.08 16.69 74.77 16.69 74.77 15.27"/><polygon class="cls-2" points="82.62 16.69 82.62 9.43 80.79 9.43 80.79 12.05 78.14 12.05 78.14 9.43 76.3 9.43 76.3 16.69 78.14 16.69 78.14 13.6 80.79 13.6 80.79 16.69 82.62 16.69"/><path class="cls-2" d="M87.92,9.2A3.57,3.57,0,0,0,84.33,13a3.64,3.64,0,1,0,7.26.08A3.66,3.66,0,0,0,87.92,9.2Zm0,6.18c-1.3,0-1.82-1.2-1.82-2.38,0-1,.42-2.28,1.79-2.28s1.85,1,1.85,2.37C89.78,14.12,89.29,15.38,88,15.38Z"/><polygon class="cls-2" points="98.71 13.6 101.36 13.6 101.36 16.69 103.19 16.69 103.19 9.43 101.36 9.43 101.36 12.05 98.71 12.05 98.71 9.43 96.88 9.43 96.88 16.69 98.71 16.69 98.71 13.6"/><polygon class="cls-2" points="107 15.87 109.79 12.52 109.79 16.69 111.63 16.69 111.63 9.43 109.79 9.43 109.79 10.21 107 13.56 107 9.43 105.17 9.43 105.17 16.69 107 16.69 107 15.87"/><path class="cls-2" d="M119.94,15l-1.43-.73a1.68,1.68,0,0,1-1.57,1.08c-1,0-1.79-.79-1.79-2.39,0-1.2.62-2.29,1.79-2.29a1.57,1.57,0,0,1,1.54,1.1l1.44-.72a3.1,3.1,0,0,0-3.06-1.88A3.61,3.61,0,0,0,113.33,13c0,2.46,1.55,3.86,3.48,3.86A3.26,3.26,0,0,0,119.94,15Z"/><path class="cls-2" d="M124.42,16.91A3.25,3.25,0,0,0,127.55,15l-1.43-.73a1.68,1.68,0,0,1-1.57,1.08c-1,0-1.79-.79-1.79-2.39,0-1.2.62-2.29,1.79-2.29a1.57,1.57,0,0,1,1.54,1.1l1.44-.72a3.09,3.09,0,0,0-3.06-1.88A3.61,3.61,0,0,0,120.94,13C120.94,15.51,122.5,16.91,124.42,16.91Z"/><path class="cls-2" d="M133.65,16.69h1.93l-2.67-7.26H131l-2.7,7.26h1.93l.36-1.16h2.67ZM131,14.22l.89-3.06.95,3.06Z"/><polygon class="cls-2" points="138.72 13.6 141.37 13.6 141.37 16.69 143.2 16.69 143.2 9.43 141.37 9.43 141.37 12.05 138.72 12.05 138.72 9.43 136.89 9.43 136.89 16.69 138.72 16.69 138.72 13.6"/><polygon class="cls-2" points="26.95 36.18 28.28 36.18 28.28 23.16 36.79 23.16 36.79 36.18 38.12 36.18 38.12 21.95 26.95 21.95 26.95 36.18"/><path class="cls-2" d="M47,21.95H41.26V36.18h1.33V29.77h3.75c2.38,0,3.85-.06,4.86-1.35A4.3,4.3,0,0,0,52,25.84a4.13,4.13,0,0,0-.93-2.76C50.29,22.19,49.49,21.95,47,21.95Zm.5,6.61h-4.9V23.24h4.74c1.11,0,2.24,0,2.9,1a3.09,3.09,0,0,1,.4,1.61C50.63,27.87,49.26,28.56,47.49,28.56Z"/><path class="cls-2" d="M59.74,21.58c-5.1,0-6.17,4.8-6.17,7.44,0,3.06,1.31,7.52,6.17,7.52,4.45,0,6.09-4,6.09-7.66C65.83,24.31,63.51,21.58,59.74,21.58Zm-.06,13.75c-4.11,0-4.7-4.43-4.7-6.27,0-2.88,1.21-6.27,4.76-6.27,3.75,0,4.68,3.89,4.68,6C64.42,31.62,63.37,35.33,59.68,35.33Z"/><path class="cls-2" d="M76.34,28.52a3,3,0,0,0,2.56-3,3.62,3.62,0,0,0-.69-2.12,4,4,0,0,0-3.45-1.43H68.37V36.18h5.87a6.82,6.82,0,0,0,3.18-.54,3.8,3.8,0,0,0,1.94-3.47A3.46,3.46,0,0,0,76.34,28.52ZM69.7,23.16h4.43c1,0,2.24,0,2.92.93a2.32,2.32,0,0,1,.42,1.39c0,1.37-.81,2.5-3.14,2.5H69.7ZM74.78,35H69.7V29.18h4a5.73,5.73,0,0,1,2.9.5A2.86,2.86,0,0,1,78,32.23C78,34.08,76.7,35,74.78,35Z"/><polygon class="cls-2" points="83.11 29.48 90.32 29.48 90.32 28.28 83.11 28.28 83.11 23.16 91.07 23.16 91.07 21.95 81.78 21.95 81.78 36.18 91.57 36.18 91.57 34.97 83.11 34.97 83.11 29.48"/><path class="cls-2" d="M99.56,21.95H93.83V36.18h1.33V29.77h3.75c2.38,0,3.85-.06,4.86-1.35a4.3,4.3,0,0,0,.81-2.58,4.13,4.13,0,0,0-.93-2.76C102.86,22.19,102.06,21.95,99.56,21.95Zm.5,6.61h-4.9V23.24H99.9c1.11,0,2.24,0,2.9,1a3.09,3.09,0,0,1,.4,1.61C103.21,27.87,101.84,28.56,100.06,28.56Z"/><polygon class="cls-2" points="107.92 29.48 115.14 29.48 115.14 28.28 107.92 28.28 107.92 23.16 115.88 23.16 115.88 21.95 106.59 21.95 106.59 36.18 116.38 36.18 116.38 34.97 107.92 34.97 107.92 29.48"/><polygon class="cls-2" points="128.72 28.3 119.97 28.3 119.97 21.95 118.64 21.95 118.64 36.18 119.97 36.18 119.97 29.51 128.72 29.51 128.72 36.18 130.05 36.18 130.05 21.95 128.72 21.95 128.72 28.3"/><path class="cls-2" d="M138.73,21.58c-5.1,0-6.17,4.8-6.17,7.44,0,3.06,1.31,7.52,6.17,7.52,4.46,0,6.09-4,6.09-7.66C144.82,24.31,142.5,21.58,138.73,21.58Zm-.06,13.75c-4.11,0-4.7-4.43-4.7-6.27,0-2.88,1.21-6.27,4.76-6.27,3.75,0,4.68,3.89,4.68,6C143.4,31.62,142.36,35.33,138.67,35.33Z"/></g></g></svg>